<?xml version="1.0" encoding="utf-8"?>
<!-- Generator: Adobe Illustrator 22.0.1, SVG Export Plug-In . SVG Version: 6.00 Build 0)  -->
<svg version="1.1" xmlns:x="&ns_extend;" xmlns:i="&ns_ai;" xmlns:graph="&ns_graphs;"
	 xmlns="http://www.w3.org/2000/svg" xmlns:xlink="http://www.w3.org/1999/xlink" x="0px" y="0px" viewBox="0 0 128 128"
	 style="enable-background:new 0 0 128 128;" xml:space="preserve">
<style type="text/css">
	.st0{opacity:0.5;}
	.st1{fill:url(#SVGID_1_);}
	.st2{fill:#F5CA04;}
	.st3{fill:#F0B803;}
</style>
<metadata>
	<sfw  xmlns="&ns_sfw;">
		<slices></slices>
		<sliceSourceBounds  bottomLeftOrigin="true" height="128" width="128" x="0" y="0"></sliceSourceBounds>
	</sfw>
</metadata>
<g id="Livello_2">
	<g class="st0">
		
			<radialGradient id="SVGID_1_" cx="64" cy="63.1253" r="163.7188" gradientTransform="matrix(0.3902 0 0 0.3916 39.0244 39.2809)" gradientUnits="userSpaceOnUse">
			<stop  offset="0.6513" style="stop-color:#F3C84C"/>
			<stop  offset="1" style="stop-color:#FFFFFF;stop-opacity:0"/>
		</radialGradient>
		<path class="st1" d="M64,128c-2.5,0-5.1-0.2-7.6-0.5l5.9-49.8c0,0,0.1,0,0.1,0L64,64l1.7,13.7c0,0,0,0,0,0l6,49.8
			C69.2,127.8,66.6,128,64,128z M41.4,123.9c-4.8-1.8-9.4-4.3-13.7-7.2L64,63.9l0-0.1l0,0l0.1-0.1l0,0l0,0l0,0l-0.1,0l0.1-0.1l0,0
			H64l0,0l0,0l0,0l0,0l0,0l0,0l0,0l0,0l0,0l0,0l0,0l0,0l0,0.1l0,0l-1.1,3L41.4,123.9z M86.7,123.8L69,77c0,0,0,0,0,0l-5-13.1l0,0
			l0-0.1l0,0l0,0l0-0.1l0,0l0,0l0,0l0,0l0,0l0,0h0l0,0l0,0h0l0,0l0.1,0.1l-0.1,0l0,0l0,0l0,0l0,0l0,0l0,0.1l36.4,52.7
			C96.2,119.5,91.6,122,86.7,123.8z M16.2,106.4c-3.4-3.9-6.4-8.1-8.8-12.7l44.2-23.4c0,0,0,0,0,0.1l12.3-6.5L16.2,106.4z
			 M111.9,106.4L74.5,73.1c0,0,0,0,0,0l-10.4-9.3l12.3,6.5c0,0,0,0,0,0l44.2,23.3C118.3,98.2,115.3,102.5,111.9,106.4z M1.9,79.2
			C0.6,74.2,0,69,0,63.9l63.9-0.1l-13.5,3.4c0,0,0,0,0,0L1.9,79.2z M126.2,79.1L77.6,67.2c0,0,0,0,0-0.1l-13.6-3.3l14,0
			c0,0,0,0,0-0.1h50v0.1C128,68.9,127.4,74.1,126.2,79.1z M64,63.8L64,63.8L64,63.8L64,63.8L64,63.8L64,63.8L64,63.8L64,63.8
			L64,63.8L64,63.8L64,63.8L64,63.8L64,63.8L64,63.8L64,63.8L64,63.8L64,63.8L64,63.8L64,63.8l0-0.3L64,63.8L64,63.8L64,63.8
			L64,63.8L64,63.8L64,63.8L64,63.8L64,63.8L64,63.8L64,63.8L64,63.8L64,63.8L64,63.8L64,63.8L64,63.8L64,63.8L64,63.8L64,63.8z
			 M64,63.8L64,63.8L64,63.8L64,63.8z M63.9,63.8l-0.3-0.1h0.2L1.8,48.5c1.2-5,3.1-9.9,5.5-14.5l56.5,29.7L63.9,63.8L63.9,63.8
			L63.9,63.8L63.9,63.8L63.9,63.8L63.9,63.8L63.9,63.8L63.9,63.8L63.9,63.8z M50,63.8L50,63.8C50,63.7,50,63.8,50,63.8z M64.1,63.8
			L64.1,63.8L64.1,63.8L64.1,63.8L64.1,63.8L64.1,63.8L64.1,63.8L64.1,63.8L64.1,63.8l0.1-0.1l56.4-30c2.4,4.6,4.3,9.5,5.5,14.5
			L64.2,63.7h0.2L64.1,63.8z M64,63.8L64,63.8L64,63.8L64,63.8z M64,63.7L64,63.7L64,63.7L64,63.7z M64,63.7L64,63.7L64,63.7
			L64,63.7z M64,63.7L64,63.7L64,63.7z M63.9,63.7l-10.4-9.3c0,0,0,0,0,0L16,21.3c3.4-3.9,7.3-7.3,11.5-10.3L56,52.2c0,0,0,0,0,0
			L63.9,63.7z M64.1,63.7L72,52.2c0,0,0,0-0.1,0l28.3-41.3c4.2,2.9,8.1,6.4,11.5,10.2L74.2,54.7L64.1,63.7z M64,63.7L71.5,0
			c5.1,0.6,10.2,1.8,15,3.7L64,63.7z M64,63.6l-4.9-13c0,0,0,0,0,0L41.2,3.8C46,1.9,51,0.7,56.2,0L64,63.6z"/>
	</g>
</g>
<g id="Livello_1">
	<path class="st2" d="M119.4,43.9c-2.3-1-4.8,0.6-5.5,2.6c-0.6,1.7,0,3.2,1.2,4.6c-2.3,3.3-4.6,6.6-7,9.8c-0.9,1.2-1.9,2.3-3,3.1
		c-3.3,2.5-5.9,1.8-7.9-1.7c-1.5-2.6-2.2-5.5-2.8-8.4c-0.6-2.6-1.2-5.2-1.2-7.9c0-0.5-0.1-1-0.2-1.5c-0.2-1.3,0.1-2.2,1.5-2.7
		c1.3-0.4,2.6-2.6,2.2-4.3c-0.5-2.1-2.1-3.5-4.1-3.5c-2.1,0-3.8,1.2-4.3,3c-0.5,1.7,0.3,3.6,2.2,5c-1,2.2-2.1,4.4-3.2,6.6
		c-1.7,3.3-3.6,6.6-6.2,9.3c-0.8,0.9-1.7,1.7-2.7,2.3c-2.8,1.9-4.9,0.8-6.6-1.4c-1.9-2.5-2.8-5.4-3.6-8.4c-0.8-3.3-1.4-6.6-2.1-9.9
		c-0.3-1.6-0.6-3.3-0.9-5c1.2-0.6,2.1-1.4,2.6-2.7c0.3-0.9,0.3-1.8,0.1-2.7c-0.4-1.6-2.4-3-4-2.9c-0.1,0-0.2,0-0.3,0
		c-1.9,0.2-3.2,1.2-3.9,3.6c-0.4,1.4,0.8,3.4,2.9,4.7c-0.5,2.6-1,5.4-1.5,8.1c-0.7,3.3-1.4,6.7-2.8,9.9c-0.8,1.8-1.6,3.7-2.7,5.3
		c-1,1.5-2.6,2.6-4.6,2.2c-1.6-0.3-2.9-1.4-3.8-2.6c-1.8-2.3-3.6-4.7-5.1-7.2c-1.7-2.8-3-5.9-4.5-8.8c-0.1-0.1,0-0.3,0-0.5l-0.1-0.1
		c0.7-0.8,1.7-1.4,2-2.7c0.4-1.8,0-3.1-1.2-4.3c-1.2-1.1-2.6-1.4-4.2-0.8c-1.8,0.6-2.7,1.9-2.8,3.7c-0.1,2.1,0.9,3.5,2.9,4.2
		c1.2,0.4,0.8,1.3,0.8,2c-0.1,1.2-0.3,2.5-0.4,3.7c-0.2,2.8-0.9,5.5-1.6,8.3c-0.6,2.2-1.2,4.3-2.4,6.3c-0.4,0.7-1,1.4-1.5,2
		C27.6,66.1,25,65.7,23,64c-2.6-2.1-4.5-4.9-6.4-7.7c-1.2-1.8-2.4-3.6-3.6-5.4c0.4-0.7,0.9-1.2,1.1-1.8c0.7-2.4-0.7-4.7-2.7-5.3
		c-2.8-0.9-5,1-5.5,2.9c-0.7,2.8,1.2,5.3,4.1,5.2c1.1,0,1.5,0.4,1.8,1.3c1.4,4.8,2.9,9.5,4.1,14.3c0.9,3.5,1.4,7.1,2.1,10.7
		c0.3,1.7,0.6,3.4,0.9,5.1c0.1,0.7-0.3,0.9-0.8,1.2c-1.5,0.7-1.4,2.6,0,3.4c0.3,0.2,0.8,0.1,1.2,0.2c0,2.9,0,5.7,0,8.6
		c-0.2,0.1-0.5,0.2-0.8,0.3c-1.3,0.5-1.7,1.1-1.5,2.2c0.2,1,0.8,1.4,2.2,1.4c14.8,0,29.6,0,44.3,0c2.6,0,5.3,0,7.9,0
		c12.3,0,24.6,0,36.9,0c1.6,0,2.3-0.5,2.4-1.6c0.1-1.1-0.4-1.7-2-2.1c-0.1,0-0.2-0.1-0.3-0.1c0-2.8,0-5.7,0-8.6
		c0.5-0.1,1-0.2,1.3-0.4c1.3-0.8,1.3-2.5-0.1-3.2c-0.9-0.4-0.9-1-0.8-1.7c0.3-2.3,0.7-4.6,1.2-6.9c0.6-3.1,1.3-6.2,2.1-9.2
		c1.3-4.7,2.7-9.4,4-14.1c0.3-0.9,0.9-0.8,1.6-0.8c1.8,0,3.3-0.9,3.8-2.6C122.7,46.9,121.8,45,119.4,43.9z"/>
	<path class="st3" d="M108.5,100.6c1.6,0,2.3-0.5,2.4-1.6c0.1-1.1-0.4-1.7-2-2.1c-0.1,0-0.2-0.1-0.3-0.1c0-2.8,0-5.7,0-8.6
		c0.5-0.1,1-0.2,1.3-0.4c1.3-0.8,1.3-2.5-0.1-3.2c-0.9-0.4-0.9-1-0.8-1.7c0.3-2.3,0.7-4.6,1.2-6.9c0.6-3.1,1.3-6.2,2.1-9.2
		c1.3-4.7,2.7-9.4,4-14.1c0.3-0.9,0.9-0.8,1.6-0.8c1.8,0,3.3-0.9,3.8-2.6c0.8-2.4-0.1-4.4-2.4-5.5c-2.3-1-4.8,0.6-5.5,2.6
		c-0.6,1.7,0,3.2,1.2,4.6c-2.3,3.3-4.6,6.6-7,9.8c-0.9,1.2-1.9,2.3-3,3.1c-3.3,2.5-5.9,1.8-7.9-1.7c-1.5-2.6-2.2-5.5-2.8-8.4
		c-0.6-2.6-1.2-5.2-1.2-7.9c0-0.5-0.1-1-0.2-1.5c-0.2-1.3,0.1-2.2,1.5-2.7c1.3-0.4,2.6-2.6,2.2-4.3c-0.5-2.1-2.1-3.5-4.1-3.5
		c-2.1,0-3.8,1.2-4.3,3c-0.5,1.7,0.3,3.6,2.2,5c-1,2.2-2.1,4.4-3.2,6.6c-1.7,3.3-3.6,6.6-6.2,9.3c-0.8,0.9-1.7,1.7-2.7,2.3
		c-2.8,1.9-4.9,0.8-6.6-1.4c-1.9-2.5-2.8-5.4-3.6-8.4c-0.8-3.3-1.4-6.6-2.1-9.9c-0.3-1.6-0.6-3.3-0.9-5c1.2-0.6,2.1-1.4,2.6-2.7
		c0.3-0.9,0.3-1.8,0.1-2.7c-0.4-1.6-2.4-3-4-2.9c-0.1,0-0.2,0-0.3,0v73.1c2.6,0,5.3,0,7.9,0C83.9,100.6,96.2,100.6,108.5,100.6z"/>
</g>
</svg>
